<?xml version="1.0" standalone="no"?><!DOCTYPE svg PUBLIC "-//W3C//DTD SVG 1.1//EN" "http://www.w3.org/Graphics/SVG/1.1/DTD/svg11.dtd"><svg t="1641459384529" class="icon" viewBox="0 0 1024 1024" version="1.1" xmlns="http://www.w3.org/2000/svg" p-id="3088" xmlns:xlink="http://www.w3.org/1999/xlink" width="200" height="200"><defs><style type="text/css"></style></defs><path d="M512 983.466667C251.733333 983.466667 40.533333 772.266667 40.533333 512S251.733333 40.533333 512 40.533333 983.466667 251.733333 983.466667 512C981.333333 772.266667 772.266667 981.333333 512 983.466667z m0-878.933334C288 104.533333 104.533333 288 104.533333 512S288 919.466667 512 919.466667 919.466667 736 919.466667 512C917.333333 288 736 106.666667 512 104.533333z" p-id="3089" fill="#2c2c2c"></path><path d="M509.866667 320c-17.066667 0-32-14.933333-32-32v-213.333333c0-17.066667 14.933333-32 32-32s32 14.933333 32 32v213.333333c0 19.2-12.8 32-32 32zM288 544h-213.333333c-17.066667 0-32-12.8-32-32s14.933333-32 32-32h213.333333c17.066667 0 32 14.933333 32 32s-12.8 32-32 32zM512 979.2c-17.066667 0-32-14.933333-32-32v-213.333333c0-17.066667 14.933333-32 32-32s32 14.933333 32 32v213.333333c0 19.2-12.8 32-32 32zM949.333333 544h-213.333333c-17.066667 0-32-14.933333-32-32s14.933333-32 32-32h213.333333c17.066667 0 32 14.933333 32 32s-14.933333 32-32 32z" p-id="3090" fill="#2c2c2c"></path></svg>